<?xml version="1.0" encoding="utf-8"?>
<!-- Generator: Adobe Illustrator 16.0.0, SVG Export Plug-In . SVG Version: 6.00 Build 0)  -->
<!DOCTYPE svg PUBLIC "-//W3C//DTD SVG 1.1//EN" "http://www.w3.org/Graphics/SVG/1.1/DTD/svg11.dtd">
<svg version="1.1" id="Layer_1" xmlns="http://www.w3.org/2000/svg" xmlns:xlink="http://www.w3.org/1999/xlink" x="0px" y="0px"
	 width="504px" height="208px" viewBox="0 0 504 208" enable-background="new 0 0 504 208" xml:space="preserve">
<rect x="168.93" y="-3080.708" fill="#FFFFFF" width="51.113" height="72.447"/>
<g>
	<path fill="#5D5A5B" d="M80,86.05c-0.1,0.73-0.24,1.45-0.43,2.15c-3.86,8.28-7.6,16.64-11.97,31.729
		c-2.62,9.051-5.22,23.69-5.96,34.53c-0.09,1.16-0.16,2.271-0.22,3.32h-3.56V86.05H80z"/>
	<path fill="#5D5A5B" d="M105.39,157.78H64.1c0.29-1.04,0.59-2.15,0.89-3.32c6.22-19.33,17.9-46.07,23.07-48.4
		c6.26-2.81,9.53,4.601,11.19,15.28c0,0-14.97,2.38-19.09,9.86c13.01-2.55,18.87,2.5,20.97,4.88
		C103.7,138.99,104.75,146.18,105.39,157.78z"/>
	<path fill="#5D5A5B" d="M389.17,86.05v71.73H108.21c2.56-14.42,3.3-35.9-0.83-51.74c-2.47-9.47-5.26-15.35-7.36-19.99H389.17z"/>
	<g>
		<linearGradient id="SVGID_1_" gradientUnits="userSpaceOnUse" x1="70.9019" y1="171.8496" x2="96.2042" y2="-60.09">
			<stop  offset="0" style="stop-color:#36A9E1"/>
			<stop  offset="1" style="stop-color:#2D2E83"/>
		</linearGradient>
		<ellipse fill="url(#SVGID_1_)" cx="86.676" cy="27.248" rx="8.514" ry="8.632"/>
	</g>
	<linearGradient id="SVGID_2_" gradientUnits="userSpaceOnUse" x1="96.7446" y1="71.3281" x2="96.7446" y2="71.3281">
		<stop  offset="0" style="stop-color:#36A9E1"/>
		<stop  offset="1" style="stop-color:#2D2E83"/>
	</linearGradient>
	<path fill="url(#SVGID_2_)" d="M96.745,71.328"/>
	<g>
		<polygon fill="#2D2E83" points="118.421,58.324 118.407,58.371 118.047,58.206 		"/>
		<path fill="#2D2E83" d="M118.407,58.373l-2.692,8.785c-0.483,0.089-2.65,0.54-3.802,1.497c-1.298,1.083-2.279,3.302-3.899,3.302
			c-0.883,0-4.376-1.31-8.282-2.755c-0.054-0.02-0.107-0.04-0.162-0.061l4.581-15.288l1.296,0.405l-0.011,0.053L118.407,58.373z"/>
		<polygon fill="#36A9E1" points="118.047,58.206 105.446,54.259 105.827,52.579 		"/>
		<path fill="#2D2E83" d="M113.517,74.331l-1.629,5.313l-12.781-4.13c2.215-0.011,4.454-0.072,6.213-0.162
			c1.61-0.078,2.815-0.188,3.214-0.303C109.643,74.715,111.938,74.559,113.517,74.331z"/>
		<polygon fill="#36A9E1" points="105.446,54.259 118.047,58.206 118.407,58.371 118.407,58.373 105.436,54.312 		"/>
		<path fill="#1D71B8" d="M64.1,157.78c-0.14,0.479-0.27,0.939-0.4,1.39c-1.55,5.24-2.81,8.41-2.81,8.41s0.13-3.36,0.44-8.41
			c0.03-0.45,0.06-0.91,0.09-1.39H64.1z"/>
		<path fill="#1D71B8" d="M108.21,157.78c-0.08,0.47-0.17,0.93-0.25,1.39c-0.63,3.28-1.35,6.15-2.14,8.44
			c-0.11-3.021-0.22-5.841-0.36-8.44c-0.02-0.47-0.04-0.93-0.07-1.39H108.21z"/>
		<path fill="#1D71B8" d="M116.62,70.07c-0.22,0.75-0.87,3.3-1.52,3.84c-0.2,0.16-0.72,0.28-1.4,0.39
			c-0.06,0.01-0.12,0.02-0.18,0.03c-1.58,0.23-3.88,0.39-4.99,0.72c-0.39,0.11-1.6,0.22-3.21,0.3c-1.76,0.09-4,0.15-6.21,0.16
			c-1.03,0.01-1.4,0-2.37-0.01c0.13,2.65,0.89,5.01,2.01,7.67c0.38,0.92,0.81,1.87,1.27,2.88H80c0.02-0.18,0.04-0.35,0.06-0.54
			c0.07-0.76,0.09-1.54,0.05-2.34c-0.31-8.8-6.22-20.04-6.62-30.36c-0.43-11.27,1.97-16.51,1.97-16.51
			c2.23-1.95,7.57,2.19,11.05,3.81c7.84,3.67,11.94,4.76,11.94,14.09c0,4.46-1.24,9.47-1.9,13.59c1.22,0.44,1.81,0.9,3.02,1.35
			c0.06,0.02,0.11,0.04,0.16,0.06c3.91,1.45,7.4,2.76,8.28,2.76c0.3,0,0.59-0.08,0.85-0.21c0.18-0.09,0.35-0.21,0.51-0.34
			c0.74-0.59,1.37-1.56,2.07-2.3c0.08-0.08,0.16-0.16,0.24-0.24c0.08-0.07,0.16-0.14,0.24-0.21c0.14-0.12,0.29-0.23,0.46-0.34
			c0.17-0.1,0.36-0.2,0.55-0.29c0.27-0.13,0.57-0.25,0.85-0.35c0.86-0.3,1.66-0.47,1.93-0.52c0.07-0.01,0.1-0.02,0.1-0.02
			s0.02,0.03,0.05,0.1C116.06,67.68,116.81,69.41,116.62,70.07z"/>
	</g>
	<g>
		<rect x="389.173" y="62.285" fill="#3AAA35" width="50.28" height="23.741"/>
		<g>
			<path fill="#FFFFFF" d="M403.268,80.768c-0.867,0.328-2.546,0.733-4.224,0.733c-2.257,0-3.974-0.579-5.227-1.813
				c-1.273-1.253-2.006-3.279-2.006-5.632c0-5.015,3.337-7.696,7.599-7.696c1.505,0,2.758,0.271,3.472,0.617l-0.598,2.354
				c-0.675-0.309-1.523-0.54-2.835-0.54c-2.643,0-4.648,1.62-4.648,5.207c0,3.434,1.832,5.169,4.281,5.169
				c0.695,0,1.216-0.096,1.467-0.212v-3.626h-2.142v-2.257h4.86V80.768z"/>
			<path fill="#FFFFFF" d="M416.67,81.347h-2.989l-1.061-3.915h-3.974l-1.021,3.915h-2.894l4.205-14.832h3.587L416.67,81.347z
				 M412.215,75.271l-0.887-3.375c-0.231-0.926-0.482-2.122-0.676-3.028h-0.058c-0.192,0.926-0.443,2.141-0.655,3.009l-0.888,3.395
				H412.215z"/>
			<path fill="#FFFFFF" d="M426.988,68.983h-3.664v12.363h-2.855V68.983h-3.645v-2.469h10.164V68.983z"/>
			<path fill="#FFFFFF" d="M436.959,81.347h-8.294V66.515h7.985v2.392h-5.131v3.588h4.842v2.333h-4.842v4.127h5.439V81.347z"/>
		</g>
	</g>
	<path fill="#FFFFFF" d="M229.528,98.146c-6.456-6.326-14.388-9.495-23.8-9.495c-4.725,0-9.333,1.038-13.832,3.104
		c-4.492,2.068-8.192,4.855-11.109,8.355c-5.062,6.073-7.59,13.947-7.59,23.611v34.054h23.67v-33.172
		c0-8.394,3.04-12.594,9.112-12.594c2.535,0,4.706,0.875,6.521,2.625c1.815,1.75,2.722,3.876,2.722,6.364
		c0,2.489-0.875,4.642-2.625,6.456c-1.757,1.814-3.856,2.722-6.3,2.722c-1.944,0-3.882-0.784-5.82-2.346v26.081
		c2.78,0.292,4.894,0.44,6.326,0.44c8.776,0,16.372-3.246,22.789-9.748c6.41-6.494,9.619-14.22,9.619-23.165
		C239.211,112.244,235.984,104.479,229.528,98.146z"/>
	<rect x="173.198" y="157.776" fill="#5D5A5B" width="23.67" height="18.608"/>
	<rect x="247.647" y="88.624" fill="#FFFFFF" width="23.673" height="65.698"/>
	<path fill="#FFFFFF" d="M315.331,89.287v25.319c-1.646-0.929-3.144-1.393-4.494-1.393c-4.304,0-6.456,3.291-6.456,9.873v31.235
		h-23.673v-35.792c0-9.114,2.49-16.383,7.47-21.806c4.979-5.422,11.625-8.133,19.938-8.133
		C309.972,88.591,312.377,88.823,315.331,89.287z"/>
	<path fill="#FFFFFF" d="M385.619,125.302H349.73c-0.548-1.813-0.822-3.481-0.822-5c0-2.109,0.38-4.178,1.139-6.203h12.026
		c-0.845-4.684-3.481-7.025-7.912-7.025c-2.953,0-5.359,1.256-7.215,3.766c-1.857,2.511-2.785,5.729-2.785,9.652
		c0,4.094,0.896,7.406,2.69,9.938c1.793,2.531,4.146,3.798,7.058,3.798c2.362,0,4.641-1.181,6.835-3.545l13.482,16.204
		c-6.288,4.938-13.272,7.405-20.951,7.405c-9.368,0-17.238-3.144-23.609-9.431s-9.557-14.072-9.557-23.356
		c0-9.241,3.216-17.047,9.652-23.419c6.435-6.372,14.336-9.558,23.704-9.558c9.155,0,16.846,3.112,23.071,9.336
		c6.224,6.225,9.335,13.894,9.335,23.008C385.872,121.8,385.788,123.276,385.619,125.302z"/>
	<g>
		<path fill="#FFFFFF" d="M165.513,88.869v25.561c-3.417,0-5.764,0.639-7.04,1.914c-1.276,1.277-2.087,3.796-2.433,7.559
			c-1.125,12.5-5.969,21.323-14.533,26.471c-4.541,2.681-10.986,4.021-19.333,4.021h-3.373v-25.691h1.103
			c3.893,0,6.671-0.811,8.337-2.433c1.664-1.622,2.627-4.465,2.887-8.531c0.346-6.618,0.962-11.268,1.849-13.949
			c0.886-2.682,2.693-5.341,5.417-7.98c4.757-4.627,11.354-6.941,19.788-6.941H165.513z"/>
	</g>
	<path fill="#FFFFFF" d="M108.21,157.78h-2.82c-0.64-11.601-1.69-18.79-4.26-21.7c-2.1-2.38-7.96-7.43-20.97-4.88
		c4.12-7.48,19.09-9.86,19.09-9.86c-1.66-10.68-4.93-18.09-11.19-15.28c-5.17,2.33-16.85,29.07-23.07,48.4
		c-0.3,1.17-0.6,2.28-0.89,3.32h-2.68c0.06-1.05,0.13-2.16,0.22-3.32c0.74-10.84,3.34-25.479,5.96-34.53
		c4.37-15.09,8.11-23.45,11.97-31.729c0.19-0.7,0.33-1.42,0.43-2.15h20.02c2.1,4.64,4.89,10.52,7.36,19.99
		C111.51,121.88,110.77,143.36,108.21,157.78z"/>
</g>
</svg>
